<?xml version="1.0" encoding="UTF-8"?>
<svg version="1.1" viewBox="0 0 2000 2000" width="1280" height="1280" xmlns="http://www.w3.org/2000/svg">
<path transform="translate(1503,735)" d="m0 0h150l7 3 7 5 6 10 1 9-2 8-6 9-8 6-6 2-75 1-5 4-3 5v7l3 5 6 4h106l12-3 14-7 14-11 10-8 11-9 10-8 16-13 11-9 10-7 8-3h11l10 4 7 8 3 8v12l-4 9-11 11-28 22-17 14-14 11-16 13-14 11-17 14-13 10-8 5-14 5-8 1h-299l-6-3v-2l-3-1-2-5-1-25v-49l1-12 6-7 4-2 50-1 10-8 11-9 16-13 13-9 15-7 15-4z" fill="#454545"/>
<path transform="translate(1533,470)" d="m0 0h11l10 2 12 5 12 7 15 15h3l15-15 13-8 14-5 8-1h11l10 2 14 6 12 9 9 11 8 16 3 13v18l-4 16-6 12-11 13-5 6h-2l-2 4-17 17-7 8-13 13-7 8-7 7-7 8-23 23-4 2-9-1-10-9-10-10-7-8-15-15-7-8-16-16-7-8-13-13-14-16-8-13-5-13-1-5v-21l4-15 6-11 8-11 9-8 16-8 6-2z" fill="#454545"/>
<path transform="translate(247,897)" d="m0 0h174l-9 27-8 31-4 2-4-2-2-26-4-11-6-7-10-4-5-1h-29l-10 3-6 7-5 13-11 41-10 36v2l20-1 14-7 8-8 8-13 5-9 6-2 2 1-1 5-8 28-9 38-3 14-2 2-5-1-2-7-2-15-5-10-5-4-13-2h-10l-3 8-8 31-11 42-1 5v11l4 4 3 1h39l16-5 11-7 7-7 9-13 12-23 3-2h5l-1 8-7 28-6 30-8 1-173-1-1-4 4-3 16-3 6-4 4-6 5-15 29-109 13-49 4-18-1-6-5-4-16-4v-5z" fill="#030303"/>
<path transform="translate(886,955)" d="m0 0h12l10 3 5 3 5 8 2 7v11l-5 23-4 18 14-27 8-13 9-12 11-11 16-8 10-2h13l13 4 8 9 2 6v14l-5 21-14 41-12 36-6 19v9l2 2h6l6-4 6-9 10-25 3-3h4l-1 7-8 23-7 12-7 7-10 5-8 2h-23l-8-3-7-8-2-4-1-13 3-15 12-36 16-49 5-17 1-10-3-4-8 1-9 7-8 10-7 10-9 16-10 21-12 30-11 34-8 26-1 1h-46l1-5 10-35 22-79 8-30v-6l-3-1h-7l-6 5-8 16-8 20-5 1-1-5 11-28 7-11 4-5 11-7z" fill="#525252"/>
<path transform="translate(478,955)" d="m0 0h27l15 4 8 4 7 6 4 6 2 6v15l-5 10-7 6-2 1h-12l-6-4-5-6-2-6v-12l4-11 6-10-4-1h-14l-8 4-6 8-2 7v15l4 11 8 14 9 15 9 16 5 12 3 14v9l-3 12-5 9-9 10-10 7-11 4-6 1-26 1-14-1-11-3-10-6-7-7-4-8-1-4v-14l4-10 7-6 9-2 9 3 6 8 3 9v13l-3 12-2 4v3l4 1h13l9-3 6-5 3-5 1-5v-17l-4-13-8-16-14-23-8-15-3-11v-15l4-13 7-10 9-8 14-7z" fill="#030303"/>
<path transform="translate(615,955)" d="m0 0h27l13 3 10 5 8 7 4 8 1 4v13l-3 8-7 8-4 2h-12l-6-4-4-5-3-8v-8l3-12 6-11-3-2h-13l-9 4-4 5-4 9-1 9 4 16 9 16 11 18 9 17 5 16 1 12-2 12-4 9-6 8-7 7-10 6-9 3-5 1-27 1-19-2-10-4-8-6-6-7-4-11v-12l3-9 5-6 8-4 9 1 6 4 6 10 1 5v14l-2 9-3 8 3 2h15l8-3 7-6 3-9v-17l-4-14-10-19-12-19-8-16-3-10v-15l4-13 7-10 9-8 14-7z" fill="#030303"/>
<path transform="translate(789,955)" d="m0 0h14l14 3 9 5 5 7 2 7v10l-4 13-8 12-7 8-13 10-17 10-20 9-20 7-11 4-1 1-1 11v16l2 11 4 7 7 5 3 1h16l14-5 11-7 10-9 5-4 5 1-3 6-7 9-5 5h-2v2l-15 11-12 6-16 4h-33l-12-4-8-6-8-9-5-12-1-5v-19l3-17 6-18 10-21 10-15 9-11 6-7 8-7 12-9 17-9 15-5zm-1 6-8 4-10 9-10 13-12 21-8 20-7 21v3l6-1 15-8 11-8 10-9 7-8 8-14 4-11 3-17v-10l-2-5z" fill="#525252"/>
<path transform="translate(1491,957)" d="m0 0h14l7 3 4 5 1 2v15l-5 25-6 23v4l12-22 9-16 12-16 8-9 11-8 11-5 5-1h19l9 4 5 6 2 4 1 10-2 15-6 20-26 78-4 15v7l1 3 4 2 6-1 6-4 6-8 7-16 5-14 3-3 4 1-1 5-7 20-8 16-10 10-8 3-6 1h-17l-8-4-5-8v-13l5-19 30-90 4-18-1-8-4-4h-9l-8 3-9 7-8 8-11 15-10 16-8 16-8 17-12 32-13 44-2 3h-26l-1-3 5-16 18-64 16-59 2-12-2-5-6-1-7 3-5 5-8 15-6 15-3 7-5 1 1-8 8-21 7-13 6-7 10-6z" fill="#6F6F6F"/>
<path transform="translate(1367,956)" d="m0 0 9 1 6 4 4 5 4 9v2h2l3-15 2-1 28-4 1 2-4 11-14 50-14 49-10 37-1 8 2 5 1 1h8l6-4 6-8 5-11 7-21 5-2 2 1-3 11-7 19-7 12-6 7-8 5-8 2h-15l-6-3-6-8-1-3v-8l7-31v-5l-8 16-11 18-11 12-9 7-10 4-6 1h-15l-7-3-7-6-6-12-2-12v-10l2-15 5-19 6-16 10-21 10-16 9-12 11-12 10-9 14-8 8-3zm-3 6-12 6-8 8-10 14-9 16-8 17-9 27-5 24-1 9v25l2 9 4 5 8 1 12-6 12-12 10-15 12-21 9-19 9-27 5-19 1-6v-20l-4-9-7-6-2-1z" fill="#6F6F6F"/>
<path transform="translate(1725,956)" d="m0 0 11 1 7 4 5 8 2 7 2-1 3-12 2-2 20-3 8-1 1 2-4 11-13 47-21 74-4 16v10l3 3h7l6-4 7-9 8-20 3-10 3-3 4 1-3 11-7 19-6 11-8 9-10 5-5 1h-15l-6-3-4-5-3-7 1-9 6-26 1-9-15 28-8 11-8 9-10 7-8 3-6 1h-16l-7-3-6-5-5-8-3-10-1-13 2-18 5-19 7-19 8-16 9-16 12-16 11-12 8-7 13-8 10-4zm-1 6-10 5-7 6-8 10-9 14-9 17-9 23-6 22-3 16-1 9v24l3 11 4 3 7 1 12-6 12-12 9-13 9-15 10-19 9-25 7-24 2-9 1-18-2-9-6-8-6-3z" fill="#6F6F6F"/>
<path transform="translate(886,955)" d="m0 0h12l10 3 5 3 5 8 2 7v11l-5 23-4 18 14-27 5-5 4 3-1 4-13 25-12 29-9 25-14 45-1 1h-46l1-5 10-35 22-79 8-30v-6l-3-1h-7l-6 5-8 16-8 20-5 1-1-5 11-28 7-11 4-5 11-7z" fill="#525252"/>
<path transform="translate(1126,956)" d="m0 0h13l14 3 9 6 5 6 3 8v10l-4 9-5 7-10 5h-7l-7-3-3-4-1-10 4-8 7-7 11-6-2-4-8-4-9-1-10 1-13 7-8 7-10 13-8 13-8 18-5 15-5 22-2 21v10l2 14 4 8 5 4 5 2h14l12-4 11-7 6-6h2l2-4 7-9 6-1 1 4-7 10-11 12-13 10-10 5-12 3h-25l-10-3-9-7-7-11-3-9-1-5v-24l5-23 7-20 8-17 10-16 11-13 8-8 13-9 14-7z" fill="#535353"/>
<path transform="translate(1222,957)" d="m0 0h18l6 3 4 5 2 4 1 7-3 17-12 36-13 36-10 28-5 17 1 7 1 2 9 1 6-4 6-8 7-15 6-16 2-2h5l-1 6-8 23-7 12-8 9-10 5-6 1h-20l-6-3-4-6-1-3v-12l6-21 20-57 15-44 1-4v-12h-10l-6 4-6 9-8 16-6 15-6 1-1-3 8-20 8-16 6-8 8-6z" fill="#525252"/>
<path transform="translate(1582,957)" d="m0 0h11l9 4 5 6 2 4 1 10-2 15-6 20-26 78-4 15v7l1 3 4 2 6-1 6-4 6-8 7-16 5-14 3-3 4 1-1 5-7 20-8 16-10 10-8 3-6 1h-17l-8-4-5-8v-13l5-19 30-90 4-18-1-8-4-4-7-1 4-1 1-4 3-3z" fill="#6F6F6F"/>
<path transform="translate(1699,966)" d="m0 0 3 4 5 5-7 8-9 14-9 17-9 23-6 22-3 16-1 9v24l3 11 6 3 9-1-3 6-18 1h-7l-3-1-1 2-7-6-5-8-3-10-1-13 2-18 5-19 7-19 8-16 9-16 12-16 11-12 8-7z" fill="#707070"/>
<path transform="translate(1338,967)" d="m0 0 6 4 3 3-11 14-10 18-8 17-9 27-5 24-1 9v25l2 9 3 4 5 2v3l-11 2h-11-3l-7-6-6-12-2-12v-10l2-15 5-19 6-16 10-21 10-16 9-12 11-12 10-9z" fill="#6F6F6F"/>
<path transform="translate(1253,880)" d="m0 0 10 1 6 4 3 4 2 9-2 8-6 9-9 6-3 1h-9l-6-3-5-6-1-2v-12l4-8 4-5 8-5z" fill="#525252"/>
<path transform="translate(1160,964)" d="m0 0 6 5 4 10v10l-4 9-5 7-10 5h-7l-7-3-3-4-1-10 4-8 7-7 11-6-1-4 4-1v-2z" fill="#535353"/>
<path transform="translate(1011,1075)" d="m0 0h4l-1 7-8 23-7 12-7 7-10 5-8 2h-23l-7-3 1-2h29l6-2 3-6 9-6 6-9 10-25z" fill="#494949"/>
<path transform="translate(1574,957)" d="m0 0h8l-5 4-2 4-12 4-10 7-9 9-11 15-10 16-3 3-2-4 1-5 10-17 10-13 8-9 11-8 11-5z" fill="#575757"/>
<path transform="translate(1610,1075)" d="m0 0 4 1-1 5-7 20-8 16-10 10-8 3-6 1h-17l-3-1v-2l19-1 6-2 1-4 8-4 6-7 7-15 6-17z" fill="#575757"/>
<path transform="translate(1491,957)" d="m0 0h12l-1 2-5-1v2h-5l-2 7-10 3-5 5-6 10-12 28-5 1 1-8 8-21 7-13 6-7 10-6z" fill="#575757"/>
<path transform="translate(1421,1074)" d="m0 0 4 1-3 11-7 19-7 12-6 7-8 5-8 2h-15l-2-2 2-1 16-1 3-2 1-3 9-6 6-8 5-11 7-21z" fill="#585858"/>
<path transform="translate(1211,961)" d="m0 0 6 1 2 5-10 5-6 8-8 16-7 17-6 1-1-3 8-20 8-16 6-8z" fill="#494949"/>
<path transform="translate(1781,1074)" d="m0 0 4 1-3 11-7 19-6 11-8 9-10 5-5 1h-15v-3l22-1 1-2h-2l2-5 6-4 7-9 8-20 3-10z" fill="#575757"/>
<path transform="translate(869,961)" d="m0 0h2l1 6-1 4-6 4-6 9-8 19-4 10-5 1-1-5 11-28 7-11 4-5z" fill="#4A4A4A"/>
<path transform="translate(1126,956)" d="m0 0h13l14 3 7 4v2h-2v2l-5 1-8-4-9-1-10 1-13 7-2 2h-3l-1-4 5-10z" fill="#4A4A4A"/>
<path transform="translate(1367,956)" d="m0 0 9 1 6 4 4 5 3 7-1 8-3-3-4-9-6-5-2-1h-9l-12 6-4 4-4-1-5-4v-2l16-8z" fill="#555"/>
<path transform="translate(1725,956)" d="m0 0 11 1 7 4 5 8 1 7-2 2-5-8-5-5-4-2h-9l-10 5-7 6-5-2-2-3 1-4 14-7z" fill="#555"/>
<path transform="translate(1342,1100)" d="m0 0 4 2v5l-11 12-9 7-10 4-6 1h-15l-5-2 2-2h12l9-1v-3l12-5 10-9 6-7z" fill="#565656"/>
<path transform="translate(841,1121)" d="m0 0h13l5 1 10-1h15l1 1v5l-1 1h-46l1-5z" fill="#454545"/>
<path transform="translate(1248,1075)" d="m0 0h5l-1 6-8 23-7 12-5-1-4 1 8-14 8-20 3-6z" fill="#565656"/>
<path transform="translate(1698,1106)" d="m0 0h3v3h2l-2 5-11 10-10 5-9 2h-16l-5-2v-2h18l10-1 3-6 9-6z" fill="#585858"/>
<path transform="translate(803,1087)" d="m0 0 5 1-3 6-7 9-5 5h-2v2l-9 7h-2l-1-7v-4l13-9 9-9z" fill="#4A4A4A"/>
<path transform="translate(1232,1114)" d="m0 0 4 1-2 5-8 7-7 3-6 1h-20l-4-2 1-2 23-3 13-7z" fill="#484848"/>
<path transform="translate(1058,1126)" d="m0 0h39l4 2-5 2-5 1h-25l-8-2z" fill="#474747"/>
<path transform="translate(1139,1087)" d="m0 0 5 1-1 5-7 9-4 5-5 1v-2h-3l1-4 3-1 2-4 7-9z" fill="#4B4B4B"/>
<path transform="translate(1610,1075)" d="m0 0 4 1-1 5-7 20-6 2-2 1 3-9 6-17z" fill="#616161"/>
<path transform="translate(930,996)" d="m0 0 4 3-1 4-10 18-3-1-2-5 9-17z" fill="#494949"/>
<path transform="translate(734,1126)" d="m0 0 15 1 5 1-1 2-5 1h-33l-6-2 1-2z" fill="#474747"/>
<path transform="translate(753,1044)" d="m0 0h2l1 8-12 4-5-1v-5l10-5z" fill="#484848"/>
<path transform="translate(789,955)" d="m0 0h8l1 2-2 4-11 2-5 3h-2l-1-4 3-5z" fill="#4A4A4A"/>
<path transform="translate(1455,1123)" d="m0 0 6 2h9l11-1-1 4h-26l-1-3h2z" fill="#595959"/>
<path transform="translate(1746,1127)" d="m0 0 7 1-2 2-5 1h-15v-3z" fill="#565656"/>
<path transform="translate(1421,1074)" d="m0 0 4 1-3 11-1-2-4-1 1-7z" fill="#767676"/>
<path transform="translate(1610,1075)" d="m0 0 4 1-1 5-3 5-4-2 1-6z" fill="#5A5A5A"/>
<path transform="translate(1608,1083)" d="m0 0 3 2-1 5-2 3v-2l-5 1 1-5 1-3z" fill="#6F6F6F"/>
<path transform="translate(1270,890)" d="m0 0h2l2 8-1 5-3-1-1-7z" fill="#474747"/>
<path transform="translate(1781,1074)" d="m0 0 4 1-1 5h-6l1-4z" fill="#848484"/>
<path transform="translate(1422,957)" d="m0 0 4 1-3 6-4-4z" fill="#575757"/>
</svg>
