<?xml version="1.0" encoding="UTF-8"?>
<svg version="1.1" viewBox="0 0 2048 834" width="1280" height="1280" xmlns="http://www.w3.org/2000/svg">
<path transform="translate(1662,16)" d="m0 0h25l18 4 19 9 11 7 11 10 12 9 4-2 14-14 10-7 17-9 16-5 10-2h24l14 3 16 8 12 8 6 5 11 15 7 15 3 11 1 7v18l-3 15-9 19-6 9-9 10-14 15-21 21-8 7-9 10-63 63-8 7-9 10-5 4-4-2-8-7-7-7-8-7-21-21-7-8-91-91-9-13-6-13-5-19-1-14 3-16 5-16 7-12 8-10 8-7 14-9 16-6z" fill="#FEFEFE"/>
<path transform="translate(2e3 293)" d="m0 0h14l8 3 6 5 5 8 2 5v10l-3 10-7 10-9 10-12 12-9 11-10 10-6 7-8 7-8 8-6 7-8 7-5 6-5 5-8 7-7 8-8 8-11 9-10 9-10 8-8 7-18 13-15 10-11 5-14 4-6 1h-18l-7-1-56-1-9-2-24-1-16-2h-47l-14 3-19 7-16 8-26 16-10 6-6 3-3 4-4-2-5-11-25-60-9-21-5-13 1-5 18-11 29-14 14-10 13-12 13-10 15-9 15-7 14-4 13-2h26l28 4 13 1 10 2 87 1 8 3 7 8 4 10v7l-6 12-7 8-8 3-14 1h-91v14h107l10-4 11-7 9-7 10-8 13-9 14-12 16-12 11-9 16-13 12-10 14-11 13-12 10-8 12-12 11-9 10-8z" fill="#FEFEFE"/>
<path transform="translate(301,510)" d="m0 0h7l1 2-6 15-8 26-7 28-2 3-6-1-1-2-1-20-3-19-4-8-4-5-12-6-12-2-12-1h-14l-15 2-8 4-6 7-5 13-10 36-13 50-4 14v3l24-1 10-4 11-7 8-8 8-13 8-14 2-2 5-1 2 1-2 10-8 29-11 43-5 23-2 3-6-2-1-2-3-24-4-9-6-7-7-4-21-2-5 1-4 13-18 68-6 23-1 6v11l2 4 6 3 4 1h43l17-4 14-7 10-8 9-10 11-18 11-22 4-3 6 1-2 10-10 40-6 29-1 2h-225v-5l5-3 17-3 10-5 6-10 6-18 18-68 20-75 17-64 1-5v-14l-5-5-8-3-13-3-1-3 2-3z" fill="#FEFEFE"/>
<path transform="translate(1011,582)" d="m0 0 16 1 11 4 8 7 4 8 1 4v19l-5 21-12 35-14 43-13 40-3 8v6l2 4 2 1h8l6-4 6-7 6-13 8-19 4-6 4-1-1 9-5 17-7 16-6 9-7 8-9 6-15 5-6 1h-17l-13-4-8-6-5-8-2-10v-11l4-19 33-99 7-22 1-4v-15l-1-2h-7l-7 3-9 7-7 8-10 14-10 17-11 22-16 39-12 34-15 49-2 2-56-1 2-9 17-63 15-52 17-62-1-8-9-1-7 3-7 10-9 20-7 17-3 3-4-1 1-8 10-27 10-19 6-7 11-7 12-4h26l10 4 7 8 4 9 1 6v9l-2 15-10 40v4l7-17 10-20 12-20 10-13 8-9 10-7 15-7 8-2z" fill="#FEFEFE"/>
<path transform="translate(771,582)" d="m0 0h14l14 2 10 4 8 6 5 8 2 9v12l-3 10-6 12-10 13-7 7-16 12-18 10-16 8-21 9-26 8-3 3-2 23 1 16 3 11 4 5v2l12 6 4 1h12l15-4 14-7 13-10 11-10 4-1 3 3-1 5-7 7-7 8-11 10-13 9-16 8-16 5-14 2h-20l-15-3-12-5-9-7-8-9-6-12-3-12v-17l3-22 6-21 9-22 11-19 10-14 11-13 14-14 17-12 18-10 17-6 13-3zm-2 8-10 4-10 8-11 13-10 15-12 23-9 23-8 26v2l5-1 21-11 16-12 13-12 10-13 8-16 5-16 2-12v-15l-2-5-2-1z" fill="#FEFEFE"/>
<path transform="translate(392,582)" d="m0 0h13l17 2 15 5 11 7 6 7 4 9 1 5v14l-4 11-7 9-7 3-11 1-8-3-7-8-3-7-1-5v-8l4-16 7-12 1-3-6-1h-15l-10 4-5 4-6 12-1 3v19l5 14 9 16 15 24 11 21 5 15 2 9v18l-4 14-8 13-6 7-13 9-11 5-15 4-8 1h-27l-16-3-13-5-10-7-8-9-4-10-1-4v-15l4-11 4-6 6-5 3-1h12l6 3 7 8 4 13v16l-4 15-3 8 3 3 3 1h13l12-3 8-6 5-6 3-8 1-6v-13l-4-16-10-21-13-21-13-22-5-11-2-10v-16l3-14 6-12 11-12 11-7 12-5 13-3z" fill="#FEFEFE"/>
<path transform="translate(565,582)" d="m0 0 21 1 14 3 12 5 8 6 5 6 4 10 1 7v9l-2 9-6 10-5 4-11 3-11-2-7-6-5-11-1-11 4-16 8-16-8-1h-14l-9 4-6 5-4 9-3 11v7l3 12 6 14 14 22 11 19 9 19 5 16v22l-5 15-6 10-7 8-10 7-14 7-16 4-9 1h-23l-13-2-15-5-12-7-8-9-5-12-1-5v-10l2-10 5-9 7-6 5-1h8l7 3 6 5 5 10 1 5v14l-3 16-3 8v5l5 1h13l12-3 9-6 4-5 3-9 1-5v-13l-4-17-10-21-14-23-11-18-5-11-2-7-1-10v-10l3-14 7-14 9-10 11-7 13-6 14-3z" fill="#FEFEFE"/>
<path transform="translate(1648,584)" d="m0 0h14l9 3 5 6 2 5v19l-5 25-8 32-2 12 14-30 8-14 18-27 9-10 9-8 14-8 11-4 6-1h20l9 3 9 8 3 8 1 12-3 20-10 33-23 69-11 35-1 11 2 4 3 1h9l9-6 7-11 7-15 7-20 4-5 5 1-1 8-10 29-7 13-11 12-7 5-13 4-18 1-9-3-7-5-4-7-1-4v-13l5-20 20-61 12-36 9-28 2-8v-16l-2-4-2-1h-15l-10 5-13 12-10 11-12 16-9 15-17 35-11 27-12 36-8 26-5 17-34 1-1-4 15-54 24-85 10-37 1-5v-11l-2-3-8-1-8 3-7 8-10 21-9 24-4 2-2-2v-8l10-28 8-15 7-9 14-8z" fill="#FEFEFE"/>
<path transform="translate(1934,584)" d="m0 0h15l7 3 6 5 6 12 2 6 2-4 2-13 2-3 30-5h7l-2 9-34 120-14 50-3 14 1 7 4 3h8l9-5 6-8 7-14 9-27 3-3 4 1 1 4-10 30-6 12-8 11-7 7-11 5-14 3h-10l-8-4-5-6-4-11 1-13 9-41v-2l-7 16-11 20-13 17-10 10-10 7-13 5-4 1h-23l-9-5-8-9-5-11-3-12v-25l5-25 8-25 9-20 11-20 7-11 14-19 9-9 4-5 14-11 12-7 12-4zm0 8-10 6-16 16-9 13-12 21-10 23-9 27-6 23-3 24-1 17 2 17 4 9 8 4 6-1 9-5 10-9 5-4 11-14 7-10 12-22 11-23 9-25 10-36 1-5 1-14v-11l-4-10-5-7-7-4zm6 131 1 2z" fill="#FEFEFE"/>
<path transform="translate(1484,584)" d="m0 0h17l8 4 6 8 5 12 1 3 4-20 3-2 24-3 5-1h7l-3 11-34 119-15 54-1 5v8l2 5 3 1h7l8-4 7-9 8-16 9-26 1-2h5l1 1v6l-10 28-8 16-9 11-9 6-13 4-7 1h-8l-8-3-7-8-3-7v-12l6-28 4-19-8 16-10 19-12 16-14 14-10 6-10 4-12 2h-8l-12-3-8-6-6-9-4-10-3-16 1-22 4-22 8-24 9-20 10-19 12-18 11-14 12-13 11-9 10-7 10-5zm1 8-10 5-10 9-11 14-7 11-13 24-9 23-8 25-5 21-3 25v22l3 12 4 6 4 2h9l10-6 12-11 9-10 10-15 10-17 13-27 9-25 11-38 1-8v-23l-4-9-4-6-7-4z" fill="#FEFEFE"/>
<path transform="translate(1186,584)" d="m0 0h26l13 4 9 6 7 8 3 9v15l-3 9-7 9-10 5-4 1h-11l-6-3-3-4-1-3v-11l4-9 7-7 10-6 6-3-1-4-8-5-7-2h-15l-10 3-12 7-12 11-10 13-11 19-7 15-6 17-6 21-3 17-2 21v19l3 14 4 8 7 6 7 2h15l14-4 12-7 13-11 13-15 5-2 3 2-1 6-10 12-7 8-12 11-18 11-14 5-12 2h-16l-13-3-11-6-8-7-7-11-4-12-2-12v-18l3-21 6-23 10-26 11-20 12-17 12-14 11-10 17-11 14-6z" fill="#FEFEFE"/>
<path transform="translate(1313,584)" d="m0 0h17l7 3 6 5 4 9v16l-6 24-15 43-15 42-15 43-1 4v10l2 4 2 1h10l8-6 6-8 8-16 10-24 3-3 4 1-1 8-9 25-7 14-10 13-9 6-10 4-13 2h-11l-9-3-5-4-4-9-1-10 4-20 20-58 18-50 10-31 2-9v-6l-1-4h-13l-6 4-6 7-13 27-8 18-3 1-3-3 2-8 9-25 8-15 8-10 12-8 9-3z" fill="#FEFEFE"/>
<path transform="translate(1927,297)" d="m0 0 11 2 13 7-2 4-8 7-10 9-11 9-8 6h-2l-2 4-13 11-11 9-12 10-10 8-18 14-10 7-2-1-2-10-5-12-2-3 1-5 8-6 15-10 26-20 28-24 8-7 12-7z" fill="#FEFEFE"/>
<path transform="translate(1349,489)" d="m0 0h7l9 3 5 5 4 8v9l-4 11-9 10-10 5-3 1h-11l-8-5-5-6-2-5v-9l5-12 9-10 8-4z" fill="#FEFEFE"/>
</svg>
